<svg width="8" height="8" viewBox="0 0 8 8" fill="none" xmlns="http://www.w3.org/2000/svg">
<g opacity="0.6" clip-path="url(#clip0_1_1008)">
<path d="M4 6.5C3.89097 6.50014 3.78317 6.47701 3.68378 6.43218C3.5844 6.38734 3.49572 6.32183 3.42367 6.24L0.153334 2.52267C0.0499704 2.39949 -0.00109612 2.24075 0.0110538 2.08041C0.0232037 1.92006 0.0976057 1.77083 0.218351 1.66463C0.339095 1.55843 0.496599 1.50368 0.657183 1.5121C0.817767 1.52052 0.968685 1.59143 1.07767 1.70967L3.93733 4.96033C3.94516 4.96926 3.95479 4.97641 3.9656 4.98131C3.97641 4.9862 3.98814 4.98874 4 4.98874C4.01187 4.98874 4.02359 4.9862 4.0344 4.98131C4.04521 4.97641 4.05485 4.96926 4.06267 4.96033L6.92233 1.70967C6.97508 1.64681 7.03986 1.59513 7.11286 1.55766C7.18586 1.5202 7.26562 1.49771 7.34744 1.49151C7.42926 1.48531 7.5115 1.49552 7.58931 1.52156C7.66713 1.5476 7.73896 1.58893 7.80057 1.64312C7.86219 1.69731 7.91234 1.76328 7.9481 1.83713C7.98386 1.91099 8.00449 1.99125 8.00878 2.07319C8.01308 2.15513 8.00095 2.23711 7.97311 2.3143C7.94527 2.39149 7.90228 2.46233 7.84667 2.52267L4.57733 6.23867C4.50515 6.3207 4.41634 6.38642 4.3168 6.43148C4.21726 6.47654 4.10927 6.4999 4 6.5Z" fill="#1C1C1C"/>
</g>
<defs>
<clipPath id="clip0_1_1008">
<rect width="8" height="8" fill="white"/>
</clipPath>
</defs>
</svg>
