<svg width="16" height="17" viewBox="0 0 16 17" fill="none" xmlns="http://www.w3.org/2000/svg">
<g id="Group">
<path id="Vector" d="M8 0.5C6.41775 0.5 4.87104 0.969192 3.55544 1.84824C2.23985 2.72729 1.21447 3.97672 0.608967 5.43853C0.00346629 6.90034 -0.15496 8.50887 0.153721 10.0607C0.462403 11.6126 1.22433 13.038 2.34315 14.1569C3.46197 15.2757 4.88743 16.0376 6.43928 16.3463C7.99113 16.655 9.59966 16.4965 11.0615 15.891C12.5233 15.2855 13.7727 14.2602 14.6518 12.9446C15.5308 11.629 16 10.0822 16 8.5C15.9975 6.37903 15.1539 4.34563 13.6541 2.84587C12.1544 1.34612 10.121 0.50247 8 0.5V0.5ZM12.618 5.96667L8.05467 12.1593C8.0008 12.2308 7.93322 12.2908 7.85589 12.3359C7.77856 12.381 7.69303 12.4102 7.60429 12.4219C7.51554 12.4336 7.42536 12.4274 7.339 12.4039C7.25265 12.3803 7.17186 12.3398 7.10134 12.2847L3.84267 9.67933C3.7743 9.62462 3.71737 9.55697 3.67514 9.48025C3.63291 9.40353 3.6062 9.31924 3.59654 9.23221C3.57704 9.05642 3.62816 8.88009 3.73867 8.742C3.84918 8.60391 4.01001 8.51538 4.1858 8.49587C4.27284 8.48621 4.36093 8.4938 4.44504 8.51818C4.52915 8.54257 4.60763 8.58328 4.676 8.638L7.39334 10.812L11.5447 5.178C11.5946 5.103 11.6593 5.03892 11.7348 4.98962C11.8102 4.94032 11.8948 4.90683 11.9836 4.89117C12.0724 4.87551 12.1634 4.87801 12.2511 4.89851C12.3389 4.91902 12.4216 4.9571 12.4942 5.01047C12.5668 5.06383 12.6279 5.13136 12.6737 5.20899C12.7194 5.28661 12.749 5.37271 12.7606 5.46209C12.7722 5.55146 12.7655 5.64226 12.741 5.72898C12.7165 5.81571 12.6746 5.89656 12.618 5.96667Z" fill="#1C1C1C"/>
</g>
</svg>
