<svg width="36" height="33" viewBox="0 0 36 33" fill="none" xmlns="http://www.w3.org/2000/svg">
<path d="M22.5 4.125H13.5C10.1863 4.125 7.5 6.58743 7.5 9.625V20.625" stroke="#222222"/>
<path d="M12.5 15.8125C12.5 14.1873 12.5009 13.0139 12.6125 12.1064C12.7225 11.212 12.934 10.6379 13.3133 10.1848C13.5241 9.93294 13.771 9.70636 14.0482 9.51138C14.5544 9.15538 15.1999 8.95641 16.1918 8.8539C17.1911 8.75063 18.4801 8.75 20.25 8.75C22.0199 8.75 23.3089 8.75063 24.3082 8.8539C25.3001 8.95641 25.9456 9.15538 26.4518 9.51138C26.729 9.70636 26.9759 9.93294 27.1867 10.1848C27.566 10.6379 27.7775 11.212 27.8875 12.1064C27.9991 13.0139 28 14.1873 28 15.8125V21.3125C28 22.9377 27.9991 24.1111 27.8875 25.0186C27.7775 25.913 27.566 26.4871 27.1867 26.9402C26.9759 27.1921 26.729 27.4186 26.4518 27.6136C25.9456 27.9696 25.3001 28.1686 24.3082 28.2711C23.3089 28.3744 22.0199 28.375 20.25 28.375C18.4801 28.375 17.1911 28.3744 16.1918 28.2711C15.1999 28.1686 14.5544 27.9696 14.0482 27.6136C13.771 27.4186 13.5241 27.1921 13.3133 26.9402C12.934 26.4871 12.7225 25.913 12.6125 25.0186C12.5009 24.1111 12.5 22.9377 12.5 21.3125V15.8125Z" stroke="#222222"/>
</svg>
