<svg width="42" height="42" viewBox="0 0 42 42" fill="none" xmlns="http://www.w3.org/2000/svg">
<path d="M24.4822 11.5607L10.5382 25.5047C10.5271 25.5158 10.5162 25.5267 10.5053 25.5375C10.3429 25.6996 10.199 25.8432 10.0977 26.0222C9.9963 26.2012 9.94723 26.3984 9.89179 26.6211C9.88809 26.636 9.88435 26.651 9.88057 26.6662L8.46704 32.3203L8.46036 32.347C8.42112 32.5037 8.37921 32.671 8.36546 32.8115C8.35032 32.9663 8.35385 33.2273 8.56326 33.4367L8.91608 33.0839L8.56326 33.4367C8.77267 33.6461 9.03373 33.6497 9.18846 33.6345C9.32901 33.6208 9.49637 33.5789 9.65307 33.5396C9.66199 33.5374 9.67088 33.5352 9.67972 33.533L15.3338 32.1194C15.349 32.1156 15.364 32.1119 15.3788 32.1082C15.6016 32.0528 15.7988 32.0037 15.9778 31.9023C16.1568 31.801 16.3004 31.6571 16.4625 31.4947C16.4733 31.4838 16.4842 31.4729 16.4953 31.4618L30.4393 17.5178L30.4626 17.4945C30.7761 17.1811 31.0461 16.9111 31.2333 16.6657C31.4339 16.4028 31.5858 16.1104 31.5858 15.75C31.5858 15.3896 31.4339 15.0972 31.2333 14.8343C31.0461 14.5889 30.7761 14.3189 30.4626 14.0055L30.4393 13.9822L28.0178 11.5607L27.9945 11.5374C27.6811 11.224 27.4111 10.9539 27.1657 10.7667C26.9028 10.5661 26.6104 10.4142 26.25 10.4142C25.8896 10.4142 25.5972 10.5661 25.3343 10.7667C25.0889 10.9539 24.8189 11.224 24.5055 11.5374L24.4822 11.5607Z" stroke="#667A8A"/>
<path d="M21.875 13.125L27.125 9.625L32.375 14.875L28.875 20.125L21.875 13.125Z" fill="#667A8A"/>
</svg>
