<svg width="20" height="21" viewBox="0 0 20 21" fill="none" xmlns="http://www.w3.org/2000/svg">
<g id="eye-off">
<g id="Vector">
<path fill-rule="evenodd" clip-rule="evenodd" d="M9.99999 8.14173C8.69517 8.14173 7.64166 9.19524 7.64166 10.5001C7.64166 10.9254 7.75327 11.3221 7.95024 11.6659L11.1659 8.45031C10.8221 8.25334 10.4253 8.14173 9.99999 8.14173ZM6.39166 10.5001C6.39166 8.50489 8.00481 6.89173 9.99999 6.89173C10.9982 6.89173 11.8967 7.29626 12.5503 7.94979C12.7943 8.19387 12.7943 8.5896 12.5503 8.83367L8.3336 13.0503C8.08952 13.2944 7.69379 13.2944 7.44972 13.0503C6.79619 12.3968 6.39166 11.4982 6.39166 10.5001Z" fill="white"/>
<path fill-rule="evenodd" clip-rule="evenodd" d="M1.88124 8.00587C3.87367 4.8739 6.79334 2.9834 9.99999 2.9834C11.8747 2.9834 13.6712 3.63641 15.2264 4.80943C15.5019 5.01729 15.5568 5.40919 15.349 5.68477C15.1411 5.96034 14.7492 6.01523 14.4736 5.80737C13.1121 4.78039 11.5753 4.2334 9.99999 4.2334C7.32345 4.2334 4.7599 5.8094 2.93567 8.67718L2.93515 8.678C2.63966 9.14093 2.47083 9.8036 2.47083 10.5042C2.47083 11.2049 2.63966 11.8675 2.93515 12.3305C3.56329 13.3164 4.29092 14.1609 5.07418 14.8345C5.33589 15.0596 5.36559 15.4542 5.14052 15.7159C4.91545 15.9776 4.52084 16.0073 4.25913 15.7823C3.37573 15.0225 2.56974 14.0833 1.88121 13.0026C1.4269 12.2906 1.22083 11.3784 1.22083 10.5042C1.22083 9.63003 1.42691 8.71788 1.88124 8.00587Z" fill="white"/>
<path fill-rule="evenodd" clip-rule="evenodd" d="M16.3166 6.62139C16.5856 6.40505 16.979 6.44771 17.1953 6.71667C17.5152 7.1144 17.8295 7.54178 18.1194 7.99851C18.5733 8.71038 18.7792 9.62209 18.7792 10.4959C18.7792 11.3701 18.5731 12.2823 18.1187 12.9943C16.1263 16.1262 13.2066 18.0167 9.99999 18.0167C8.88621 18.0167 7.79568 17.7812 6.77412 17.3511C6.45599 17.2171 6.30669 16.8507 6.44064 16.5325C6.57459 16.2144 6.94107 16.0651 7.25919 16.199C8.13764 16.5689 9.06377 16.7667 9.99999 16.7667C12.6765 16.7667 15.2401 15.1907 17.0643 12.3229L17.0648 12.3221C17.3603 11.8592 17.5292 11.1965 17.5292 10.4959C17.5292 9.79527 17.3603 9.1326 17.0648 8.66967L17.064 8.66829C16.8038 8.25836 16.5181 7.86907 16.2213 7.50012C16.005 7.23116 16.0476 6.83773 16.3166 6.62139Z" fill="white"/>
<path fill-rule="evenodd" clip-rule="evenodd" d="M13.0383 10.4688C13.3778 10.5314 13.6022 10.8573 13.5396 11.1967C13.276 12.6266 12.1182 13.7844 10.6883 14.048C10.3489 14.1106 10.0229 13.8862 9.96035 13.5467C9.89776 13.2073 10.1222 12.8814 10.4617 12.8188C11.3818 12.6491 12.1407 11.8902 12.3104 10.9701C12.3729 10.6306 12.6989 10.4062 13.0383 10.4688Z" fill="white"/>
<path fill-rule="evenodd" clip-rule="evenodd" d="M7.94193 12.5581C8.18601 12.8022 8.18601 13.1979 7.94193 13.442L3.77527 17.6087C3.53119 17.8528 3.13546 17.8528 2.89138 17.6087C2.64731 17.3646 2.64731 16.9689 2.89138 16.7248L7.05805 12.5581C7.30213 12.314 7.69786 12.314 7.94193 12.5581Z" fill="white"/>
<path fill-rule="evenodd" clip-rule="evenodd" d="M17.1086 3.39146C17.3527 3.63553 17.3527 4.03126 17.1086 4.27534L12.9419 8.44201C12.6979 8.68608 12.3021 8.68608 12.0581 8.44201C11.814 8.19793 11.814 7.8022 12.0581 7.55812L16.2247 3.39146C16.4688 3.14738 16.8645 3.14738 17.1086 3.39146Z" fill="white"/>
</g>
</g>
</svg>
