<svg width="65" height="65" viewBox="0 0 65 65" fill="none" xmlns="http://www.w3.org/2000/svg">
<g id="Lines">
<rect id="Rectangle 1" x="31.1659" y="0.140198" width="2.66822" height="16.0093" rx="1.33411" fill="#1DA886"/>
<rect id="Rectangle 5" x="0.481308" y="33.493" width="2.66822" height="16.0093" rx="1.33411" transform="rotate(-90 0.481308 33.493)" fill="#E7EDFF"/>
<rect id="Rectangle 7" x="17.646" y="60.5551" width="2.66822" height="16.0093" rx="1.33411" transform="rotate(-150 17.646 60.5551)" fill="#DDDDDD"/>
<rect id="Rectangle 9" x="49.6646" y="59.2209" width="2.66822" height="16.0093" rx="1.33411" transform="rotate(150 49.6646 59.2209)" fill="#E0755A"/>
<rect id="Rectangle 11" x="60.8961" y="47.0129" width="2.66822" height="16.0093" rx="1.33411" transform="rotate(120 60.8961 47.0129)" fill="#E0755A"/>
<rect id="Rectangle 13" x="59.562" y="14.9943" width="2.66822" height="16.0093" rx="1.33411" transform="rotate(60 59.562 14.9943)" fill="#1DA886"/>
<rect id="Rectangle 4" x="33.8341" y="64.1776" width="2.66822" height="16.0093" rx="1.33411" transform="rotate(180 33.8341 64.1776)" fill="#E0755A"/>
<rect id="Rectangle 6" x="64.5187" y="30.8248" width="2.66822" height="16.0093" rx="1.33411" transform="rotate(90 64.5187 30.8248)" fill="#1DA886"/>
<rect id="Rectangle 8" x="47.354" y="3.76276" width="2.66822" height="16.0093" rx="1.33411" transform="rotate(30 47.354 3.76276)" fill="#1DA886"/>
<rect id="Rectangle 10" x="15.3354" y="5.09686" width="2.66822" height="16.0093" rx="1.33411" transform="rotate(-30 15.3354 5.09686)" fill="#D9E3FF"/>
<rect id="Rectangle 12" x="4.10387" y="17.3048" width="2.66822" height="16.0093" rx="1.33411" transform="rotate(-60 4.10387 17.3048)" fill="#EDF2FF"/>
<rect id="Rectangle 14" x="5.43797" y="49.3235" width="2.66822" height="16.0093" rx="1.33411" transform="rotate(-120 5.43797 49.3235)" fill="#E7E7E7"/>
</g>
</svg>
