<svg width="16" height="16" viewBox="0 0 16 16" fill="none" xmlns="http://www.w3.org/2000/svg">
<g opacity="0.2">
<path d="M14.3333 4C14.1565 4 13.987 4.07024 13.8619 4.19526C13.7369 4.32029 13.6667 4.48986 13.6667 4.66667V13.5C13.6667 13.5442 13.6491 13.5866 13.6179 13.6179C13.5866 13.6491 13.5442 13.6667 13.5 13.6667H4.66667C4.48986 13.6667 4.32029 13.7369 4.19526 13.8619C4.07024 13.987 4 14.1565 4 14.3333V15.3333C4 15.5101 4.07024 15.6797 4.19526 15.8047C4.32029 15.9298 4.48986 16 4.66667 16H14.6667C15.0203 16 15.3594 15.8595 15.6095 15.6095C15.8595 15.3594 16 15.0203 16 14.6667V4.66667C16 4.48986 15.9298 4.32029 15.8047 4.19526C15.6797 4.07024 15.5101 4 15.3333 4H14.3333Z" fill="#1C1C1C"/>
</g>
</svg>
