<?xml version="1.0" standalone="no"?>
<!DOCTYPE svg PUBLIC "-//W3C//DTD SVG 20010904//EN"
 "http://www.w3.org/TR/2001/REC-SVG-20010904/DTD/svg10.dtd">
<svg version="1.0" xmlns="http://www.w3.org/2000/svg"
 width="55.000000pt" height="55.000000pt" viewBox="0 0 55.000000 55.000000"
 preserveAspectRatio="xMidYMid meet">
<metadata>
Created by potrace 1.16, written by Peter Selinger 2001-2019
</metadata>
<g transform="translate(0.000000,55.000000) scale(0.100000,-0.100000)"
fill="#000000" stroke="none">
<path d="M155 446 l-120 -52 -3 -102 c-3 -97 -2 -102 18 -102 19 0 20 6 20 89
l0 89 111 -44 c62 -25 119 -42 128 -39 15 6 15 5 0 -10 -15 -15 -19 -15 -50 4
-53 33 -104 28 -145 -13 -78 -78 -18 -196 99 -196 19 0 40 -7 47 -15 16 -19
34 -19 49 -1 6 7 36 16 66 18 63 5 98 31 115 84 24 72 -31 144 -110 144 -31 0
-25 5 54 40 50 22 94 44 98 48 7 7 -167 82 -242 106 -8 3 -69 -19 -135 -48z
m208 -18 c42 -17 77 -35 77 -38 0 -4 -34 -21 -75 -39 l-74 -33 -78 32 c-43 18
-80 34 -82 36 -4 3 135 71 149 73 3 1 40 -13 83 -31z m-115 -194 c12 -14 22
-32 22 -40 0 -24 35 -12 38 13 4 30 38 56 72 56 39 0 80 -38 80 -74 0 -71 -81
-99 -242 -83 -42 4 -62 12 -79 30 -38 41 -26 104 26 124 28 12 56 3 83 -26z"/>
</g>
</svg>
